HIERARCHY
ROOT Hips
{
	OFFSET -3.958830 18.904000 13.208200
	CHANNELS 6 Xposition Yposition Zposition Zrotation Yrotation Xrotation 
	JOINT LHipJoint
	{
		OFFSET 0.000000 0.000000 0.000000
		CHANNELS 3 Zrotation Yrotation Xrotation
		JOINT LeftUpLeg
		{
			OFFSET 1.800000 -1.400000 0.085000
			CHANNELS 3 Zrotation Yrotation Xrotation
			JOINT LeftLeg
			{
				OFFSET 2.215000 -6.000000 0.000000
				CHANNELS 3 Zrotation Yrotation Xrotation
				JOINT LeftFoot
				{
					OFFSET 2.500000 -6.900000 0.000000
					CHANNELS 3 Zrotation Yrotation Xrotation
					JOINT LeftToeBase
					{
						OFFSET 0.200000 -0.500000 1.950000
						CHANNELS 3 Zrotation Yrotation Xrotation
						End Site
						{
							OFFSET 0.000000 0.000000 0.000000
						}
					}
				}
			}
		}
	}
	JOINT RHipJoint
	{
		OFFSET 0.000000 0.000000 0.000000
		CHANNELS 3 Zrotation Yrotation Xrotation
		JOINT RightUpLeg
		{
			OFFSET -1.800000 -1.400000 0.085000
			CHANNELS 3 Zrotation Yrotation Xrotation
			JOINT RightLeg
			{
				OFFSET -2.215000 -6.000000 0.000000
				CHANNELS 3 Zrotation Yrotation Xrotation
				JOINT RightFoot
				{
					OFFSET -2.500000 -6.900000 0.000000
					CHANNELS 3 Zrotation Yrotation Xrotation
					JOINT RightToeBase
					{
						OFFSET -0.200000 -0.500000 1.950000
						CHANNELS 3 Zrotation Yrotation Xrotation
						End Site
						{
							OFFSET 0.000000 0.000000 0.000000
						}
					}
				}
			}
		}
	}
	JOINT LowerBack
	{
		OFFSET 0.000000 0.000000 0.000000
		CHANNELS 3 Zrotation Yrotation Xrotation
		JOINT Spine
		{
			OFFSET -0.087000 1.940000 -0.288900
			CHANNELS 3 Zrotation Yrotation Xrotation
			JOINT Spine1
			{
				OFFSET 0.000000 1.950000 0.060000
				CHANNELS 3 Zrotation Yrotation Xrotation
				JOINT Neck
				{
					OFFSET 0.000000 0.000000 0.000000
					CHANNELS 3 Zrotation Yrotation Xrotation
					JOINT Neck1
					{
						OFFSET 0.000000 1.600000 0.340000
						CHANNELS 3 Zrotation Yrotation Xrotation
						JOINT Head
						{
							OFFSET 0.000000 1.667000 -0.240000
							CHANNELS 3 Zrotation Yrotation Xrotation
							End Site
							{
								OFFSET 0.000000 0.000000 0.000000
							}
						}
					}
				}
				JOINT LeftShoulder
				{
					OFFSET 0.000000 0.000000 0.000000
					CHANNELS 3 Zrotation Yrotation Xrotation
					JOINT LeftArm
					{
						OFFSET 2.700000 1.550000 -0.730000
						CHANNELS 3 Zrotation Yrotation Xrotation
						JOINT LeftForeArm
						{
							OFFSET 5.450000 0.000000 0.000000
							CHANNELS 3 Zrotation Yrotation Xrotation
							JOINT LeftHand
							{
								OFFSET 3.450000 0.000000 0.000000
								CHANNELS 3 Zrotation Yrotation Xrotation
								JOINT LeftHandIndex1
								{
									OFFSET 0.750000 0.000000 0.000000
									CHANNELS 3 Zrotation Yrotation Xrotation
									End Site
									{
										OFFSET 0.000000 0.000000 0.000000
									}
								}
							}
						}
					}
				}
				JOINT RightShoulder
				{
					OFFSET 0.000000 0.000000 0.000000
					CHANNELS 3 Zrotation Yrotation Xrotation
					JOINT RightArm
					{
						OFFSET -2.700000 1.550000 -0.730000
						CHANNELS 3 Zrotation Yrotation Xrotation
						JOINT RightForeArm
						{
							OFFSET -5.450000 0.000000 0.000000
							CHANNELS 3 Zrotation Yrotation Xrotation
							JOINT RightHand
							{
								OFFSET -3.450000 0.000000 0.000000
								CHANNELS 3 Zrotation Yrotation Xrotation
								JOINT RightHandIndex1
								{
									OFFSET -0.750000 0.000000 0.000000
									CHANNELS 3 Zrotation Yrotation Xrotation
									End Site
									{
										OFFSET 0.000000 0.000000 0.000000
									}
								}
							}
						}
					}
				}
			}
		}
	}
}
MOTION
Frames: 13
Frame Time: 0.016667
0.177660 16.712760 -4.706510 5.717987 -1.887260 8.373241 -14.850303 11.353107 2.358329 13.105790 -3.835878 -30.886657 2.817987 6.500903 35.252478 -1.977024 6.971965 2.205092 0.391170 -0.140270 0.112370 19.091020 -8.469973 5.542056 -23.759499 9.736438 -46.827834 43.425303 -16.637322 24.645500 -1.181219 -7.902069 1.775607 0.498130 0.944060 -0.017440 -5.305816 -0.683129 -8.130774 20.378784 -6.609542 19.814172 -16.373643 -1.677809 0.747405 -1.167347 -14.754941 -4.774831 -29.231991 15.847363 15.321183 -7.979190 3.419000 -24.520980 -26.724627 -0.923980 -3.023303 -24.571708 -8.045097 -1.917149 17.082672 -26.386464 -5.412381 -4.270622 1.934182 1.263960 0.405360 -0.455530 0.272070 26.701987 7.641503 2.706026 31.873033 9.245904 -1.947057 72.213655 50.754351 30.839217 1.223978 -1.275947 -1.186710 1.295720 0.613730 -0.584920 
0.260990 16.569760 -4.714120 4.171229 -3.314785 7.734342 -14.784868 11.199331 1.697419 16.381552 -2.162379 -27.165763 3.020546 6.177141 30.428172 -2.063419 6.253877 2.444631 0.433710 -0.083180 0.159070 19.247719 -8.169528 6.341052 -32.341341 8.922613 -49.770469 56.621192 -18.970582 21.761244 -1.589127 -8.825628 1.515674 0.492400 0.815380 -0.052790 -5.619172 -0.242657 -8.281619 23.831793 -7.209473 21.995377 -18.158391 -1.741669 0.079080 -0.914628 -15.589240 -4.873784 -32.101105 17.057308 15.502641 -9.359220 2.812650 -28.147000 -25.805780 0.142750 -2.917157 -25.355226 -8.176980 -1.785582 25.173695 -27.103711 -6.883072 -4.136583 1.890022 1.336040 0.291310 -0.369270 0.258000 25.039038 7.256595 2.189066 33.778046 13.830465 1.363231 87.428387 57.067194 46.070395 1.402404 -1.103791 -1.152750 1.287230 0.572820 -0.594150 
0.343030 16.418770 -4.729330 2.658282 -5.233284 5.940468 -14.744717 11.081358 1.210006 20.061600 -0.529960 -22.728286 2.391172 6.462799 26.858185 -2.044972 6.042359 2.501338 0.397030 -0.136600 0.166710 19.359065 -7.943981 6.972863 -40.579688 7.917324 -50.790635 69.044171 -19.387561 17.594642 -1.851646 -9.190978 1.424952 0.420000 0.731700 -0.044240 -5.838292 0.179047 -8.469908 26.618049 -7.584471 25.589485 -19.696023 -1.327643 0.755723 -0.061774 -15.825058 -5.526779 -33.556529 18.324727 17.062960 -10.789080 2.432570 -31.682980 -24.615057 -0.856471 -1.965781 -24.140199 -7.794273 -1.962505 32.279855 -27.699590 -8.392960 -4.061291 1.861238 1.403360 0.205810 -0.296750 0.217750 22.199274 8.842337 2.128646 35.289943 19.080939 2.647584 101.650164 64.574625 64.184603 1.675691 -0.432199 -1.123240 1.268680 0.594540 -0.599920 
0.422480 16.302830 -4.760210 1.026009 -6.876466 2.890453 -14.694197 10.931222 0.915682 23.497200 1.090816 -18.286241 1.681507 7.093317 25.101616 -1.958352 6.205704 2.403583 0.363930 -0.180620 0.140520 19.450187 -7.901882 7.367107 -47.350143 7.567867 -49.305365 78.993312 -18.252797 13.635117 -1.989019 -9.221012 1.420044 0.357040 0.658470 -0.027600 -6.053053 0.812541 -8.628918 30.176075 -8.454875 29.921240 -21.404030 -0.628112 3.055066 1.192277 -16.011254 -6.720682 -34.716865 18.650665 19.653666 -10.991230 0.915740 -34.526760 -23.089160 -4.328595 0.075570 -21.683556 -6.770489 -2.494266 36.914088 -26.235619 -9.224638 -3.990812 1.892292 1.449470 0.125650 -0.243890 0.177960 18.578408 13.161451 2.290512 34.141453 23.160211 -1.904712 121.864404 69.663410 93.270925 1.463432 0.496733 -1.077580 1.234990 0.631270 -0.590050 
0.478500 16.212900 -4.795760 0.252788 -8.138192 0.267301 -14.668681 10.834022 0.740282 25.335057 2.501432 -15.682348 1.850749 7.734967 25.719857 -1.864228 6.506871 2.260013 0.380530 -0.158160 0.153130 19.513855 -7.871981 7.682279 -53.756706 7.232794 -46.983267 86.526157 -16.481046 10.411495 -2.065398 -9.122525 1.434756 0.346440 0.594300 0.000570 -6.190749 1.272538 -8.733798 32.342883 -9.200274 33.459650 -22.756414 0.074019 6.062932 2.401292 -16.080461 -7.877001 -34.729518 18.615659 21.222581 -11.378360 -0.241080 -36.404830 -22.535874 -8.212156 2.025222 -16.663500 -4.769466 -3.241204 40.720043 -24.152675 -9.653002 -3.959707 1.969216 1.468060 0.076690 -0.191780 0.158040 16.158004 17.712055 2.711970 29.073438 26.644590 -4.830686 160.879138 74.329143 148.999243 0.868816 -0.579437 -1.027050 1.201560 0.634010 -0.582080 
0.484340 16.156330 -4.829570 -0.096152 -8.285992 -2.563422 -14.661027 10.890956 0.681357 26.462129 3.684126 -14.888123 2.937173 8.306724 28.184526 -1.809155 6.954750 2.083104 0.332970 -0.240930 0.149920 19.521826 -7.915025 7.760226 -57.274313 7.627553 -42.829922 90.394829 -15.493919 8.814329 -2.067290 -9.038907 1.474898 0.302810 0.579000 -0.022410 -6.192148 1.399741 -8.762573 33.534283 -10.085292 36.679083 -24.006685 0.489419 9.131850 3.736357 -15.576531 -9.785167 -34.164501 18.185424 23.514119 -11.774740 -0.912810 -36.869390 -21.884994 -12.205499 3.450644 -10.334202 -2.787227 -4.030120 41.975202 -21.033103 -9.224209 -3.979782 1.961238 1.523820 0.053700 -0.195750 0.126690 13.605696 21.657037 4.340387 23.023315 28.447397 -5.022742 -150.090338 69.194383 -150.049722 1.050537 -1.033200 -1.067590 1.215640 0.668260 -0.614500 
0.457050 16.152070 -4.873300 -0.273244 -7.842014 -5.754332 -14.690440 11.256711 0.669150 26.518314 4.476057 -15.161510 5.732347 8.122365 31.567822 -1.621925 7.247065 1.993205 0.236440 -0.336880 0.084490 19.422567 -8.025924 7.620204 -57.104352 9.103509 -37.384405 89.077004 -15.570921 9.326528 -2.057474 -9.071894 1.507573 0.193280 0.570800 -0.047200 -5.945781 0.977864 -8.751965 32.503926 -10.843152 41.831622 -23.885391 0.000159 9.680704 4.719466 -14.862213 -11.184932 -32.961384 17.907202 25.794597 -12.119930 -0.620040 -38.061310 -22.234375 -14.935496 4.859590 -3.930906 1.480913 -4.518836 41.456772 -19.807856 -8.555888 -3.994530 1.977191 1.527740 0.025200 -0.187720 0.114840 12.461192 24.486091 5.246374 16.384830 28.353466 -6.757865 -132.181345 59.698881 -119.653940 1.226827 -0.652434 -1.052960 1.197720 0.679760 -0.594020 
0.391030 16.185530 -4.900650 -0.106452 -7.289429 -8.076308 -14.738895 11.818294 0.702093 25.572458 4.625766 -15.443748 8.701635 7.099920 33.124278 -1.421059 7.198923 2.051120 0.093070 -0.464880 -0.066180 19.232101 -8.233601 7.247005 -53.265686 10.906015 -31.354444 83.388110 -16.359011 11.278257 -2.013157 -9.208116 1.506399 0.042470 0.599070 -0.055470 -5.543782 0.188012 -8.660876 29.796200 -10.726485 46.573175 -22.118236 -0.358392 8.868875 5.322244 -14.497894 -12.627120 -32.813889 17.749270 27.234374 -11.986610 -0.083610 -38.545390 -21.846727 -16.469546 6.382857 -1.636981 6.538724 -4.723391 41.724374 -20.172893 -8.496691 -3.990095 2.034961 1.487720 0.013100 -0.201930 0.116790 11.257161 26.966685 5.844509 12.745438 27.564246 -9.388662 -125.126850 52.321240 -101.198340 1.256266 -0.375656 -1.008310 1.148950 0.712480 -0.530630 
0.297010 16.219280 -4.907410 -0.071064 -7.234899 -7.690873 -14.794951 12.147448 0.879558 24.711726 4.493182 -17.337411 10.230628 6.611360 34.258334 -1.298043 7.263272 2.062968 -0.073470 -0.650570 -0.221230 19.067255 -8.382629 6.832656 -48.553206 11.774268 -28.425379 77.709244 -17.300675 13.330547 -1.912887 -9.298894 1.504196 -0.094670 0.707330 -0.070640 -5.223519 -0.410148 -8.614818 26.800130 -9.267882 47.356091 -19.740247 0.389276 7.906485 5.374078 -14.433062 -13.903431 -32.856585 17.462481 27.461130 -9.588840 0.845160 -35.851850 -20.067683 -16.570916 7.425323 -3.071971 11.286586 -5.119531 43.532549 -23.398780 -9.913176 -3.989131 2.054716 1.439130 0.052230 -0.284560 0.107530 9.723152 28.452796 6.566526 11.874776 26.510065 -11.080618 -122.067521 46.598896 -89.311885 1.235461 -0.340362 -1.026070 1.129060 0.786780 -0.487030 
0.154620 16.263180 -4.908450 0.112228 -6.917495 -5.959786 -14.860781 12.335160 1.044463 23.378034 4.081079 -20.000947 12.084948 5.850481 34.760916 -1.299328 7.230810 2.101717 -0.148810 -0.740020 -0.298730 18.940787 -8.431414 6.536522 -44.508179 11.733287 -27.268922 73.635475 -17.413064 14.205804 -1.815343 -9.257501 1.545243 -0.133670 0.805650 -0.088180 -4.962666 -0.901442 -8.605031 23.319402 -6.701903 45.379526 -16.229481 1.707843 7.993712 4.593122 -14.501207 -14.100258 -32.469442 16.597953 27.173840 -7.438300 1.247920 -33.172890 -17.218583 -15.235880 7.326192 -5.950860 12.261749 -5.669932 44.578081 -28.428941 -12.135189 -3.944119 1.994541 1.410010 0.111030 -0.357640 0.118960 8.532722 28.033193 6.990159 11.993884 25.521067 -11.369472 -121.351119 43.606615 -84.095291 1.191568 -0.397339 -1.072040 1.150510 0.825370 -0.477100 
-0.005610 16.336950 -4.889310 -0.471928 -6.348761 -3.918133 -14.922582 12.417807 1.233167 23.200962 3.749398 -21.913687 12.724029 5.441624 33.661931 -1.243331 7.039997 2.201861 -0.210890 -0.787600 -0.386420 18.837079 -8.391790 6.314577 -40.441976 11.531344 -26.237791 70.538058 -15.980055 13.158564 -1.701782 -8.997278 1.675506 -0.188070 0.897220 -0.068950 -4.748032 -1.307041 -8.660676 20.949019 -4.654226 42.235826 -13.126982 2.632283 7.793108 3.770494 -14.045365 -13.979838 -30.903675 15.738236 28.411522 -5.813700 1.969260 -29.814360 -15.546292 -13.970994 6.924756 -7.550762 13.541744 -6.397599 44.590651 -36.719172 -15.221245 -3.912613 1.949876 1.338630 0.185550 -0.403280 0.149330 8.442383 26.975434 7.514147 13.890321 24.979654 -10.436806 -120.291536 43.148737 -81.394569 1.184462 -0.413857 -1.051060 1.130870 0.835040 -0.433190 
-0.191420 16.438450 -4.877600 -0.852420 -5.692339 -1.651723 -15.010697 12.420813 1.385832 22.701933 3.344499 -23.855111 13.093421 5.165165 32.634358 -1.245818 6.835637 2.288736 -0.213610 -0.758940 -0.413670 18.754483 -8.240052 6.248006 -38.565603 10.994901 -26.633806 69.431336 -14.882984 11.924818 -1.625885 -8.809087 1.756852 -0.167590 0.941780 -0.069300 -4.523501 -1.700573 -8.758514 18.017454 -2.419291 38.838577 -9.678141 3.480727 7.927831 2.602812 -13.341746 -13.198634 -28.101038 14.317336 28.602322 -5.102430 2.395150 -27.056800 -14.133427 -12.263308 6.028720 -8.825373 13.433547 -6.923557 42.896807 -44.611925 -17.560638 -3.876512 1.920421 1.266460 0.247120 -0.438790 0.175750 9.171404 25.040445 7.699953 16.440730 24.273702 -9.064422 -119.873293 44.735474 -82.462941 1.180561 -0.437994 -1.043300 1.114730 0.811540 -0.414590 
-0.368620 16.577800 -4.862400 -1.599221 -5.704946 -0.250748 -15.097642 12.509170 1.451815 22.543040 3.191273 -24.271143 12.887339 5.091207 31.385160 -1.241716 6.621564 2.375591 -0.181640 -0.686580 -0.414870 18.657814 -8.151300 6.181204 -37.085103 10.765856 -26.716887 68.496259 -14.419236 11.536011 -1.592787 -8.722255 1.807689 -0.130190 0.958760 -0.067080 -4.271332 -2.077356 -8.805960 15.484006 -0.597105 36.582197 -6.391387 4.232487 8.205494 1.646865 -12.448412 -12.388965 -25.179158 13.022387 28.690332 -4.587260 2.652150 -25.587390 -13.382387 -10.961864 5.246533 -11.258540 12.536128 -7.908397 40.872130 -52.148478 -19.870670 -3.832755 1.912766 1.201510 0.289740 -0.451410 0.205690 10.174833 23.392341 7.715429 18.962999 23.471802 -8.139015 -118.389141 48.181071 -84.697420 1.188729 -0.384139 -1.016170 1.099000 0.768810 -0.395600 
